<?xml version="1.0" encoding="UTF-8" standalone="no"?>
<!-- Created with Inkscape (http://www.inkscape.org/) -->

<svg
   xmlns:dc="http://purl.org/dc/elements/1.1/"
   xmlns:cc="http://creativecommons.org/ns#"
   xmlns:rdf="http://www.w3.org/1999/02/22-rdf-syntax-ns#"
   xmlns:svg="http://www.w3.org/2000/svg"
   xmlns="http://www.w3.org/2000/svg"
   xmlns:sodipodi="http://sodipodi.sourceforge.net/DTD/sodipodi-0.dtd"
   xmlns:inkscape="http://www.inkscape.org/namespaces/inkscape"
   width="1920"
   height="1080"
   viewBox="0 0 507.99999 285.75001"
   version="1.1"
   id="svg8"
   inkscape:version="0.92.3 (2405546, 2018-03-11)"
   sodipodi:docname="sandbox.svg">
  <defs
     id="defs2" />
  <sodipodi:namedview
     id="base"
     pagecolor="#ffffff"
     bordercolor="#666666"
     borderopacity="1.0"
     inkscape:pageopacity="0.0"
     inkscape:pageshadow="2"
     inkscape:zoom="0.35"
     inkscape:cx="883.11019"
     inkscape:cy="481.57636"
     inkscape:document-units="px"
     inkscape:current-layer="layer1"
     showgrid="false"
     units="px"
     inkscape:window-width="1920"
     inkscape:window-height="1016"
     inkscape:window-x="0"
     inkscape:window-y="27"
     inkscape:window-maximized="1"
     showguides="true"
     inkscape:guide-bbox="true" />
  <metadata
     id="metadata5">
    <rdf:RDF>
      <cc:Work
         rdf:about="">
        <dc:format>image/svg+xml</dc:format>
        <dc:type
           rdf:resource="http://purl.org/dc/dcmitype/StillImage" />
        <dc:title />
      </cc:Work>
    </rdf:RDF>
  </metadata>
  <g
     inkscape:label="Layer 1"
     inkscape:groupmode="layer"
     id="layer1"
     transform="translate(0,-11.249983)">
    <path
       id="path4594-2"
       style="fill:#222222;fill-opacity:1;stroke:none;stroke-width:5.29166698;stroke-linecap:round;stroke-linejoin:round;stroke-miterlimit:4;stroke-dasharray:none;stroke-opacity:1"
       d="m 280.45835,87.979149 c -7.32901,0 -13.22918,5.90021 -13.22918,13.229151 v 26.45834 h 26.45838 v -9.26039 c 0,-2.1987 1.76999,-3.96874 3.96873,-3.96874 h 71.43753 c 2.19869,0 3.96874,1.77004 3.96874,3.96874 v 71.43751 c 0,2.19866 -1.77005,3.96876 -3.96874,3.96876 h -71.43753 c -2.19874,0 -3.96873,-1.7701 -3.96873,-3.96876 v -9.26044 h -26.45838 v 26.45836 c 0,7.32894 5.90017,13.22914 13.22918,13.22914 h 105.83336 c 7.32899,0 13.22915,-5.9002 13.22915,-13.22914 V 101.2083 c 0,-7.328941 -5.90016,-13.229151 -13.22915,-13.229151 z m -158.75,0 c -7.32897,0 -13.2292,5.90021 -13.2292,13.229151 v 105.83338 c 0,7.32894 5.90023,13.22914 13.2292,13.22914 h 105.83333 c 7.32899,0 13.22914,-5.9002 13.22914,-13.22914 v -26.45836 h -26.45831 v 9.26044 c 0,2.19866 -1.77004,3.96876 -3.96875,3.96876 h -71.43752 c -2.19868,0 -3.96874,-1.7701 -3.96874,-3.96876 v -71.43751 c 0,-2.1987 1.77006,-3.96874 3.96874,-3.96874 h 71.43752 c 2.19871,0 3.96875,1.77004 3.96875,3.96874 v 9.26039 h 26.45831 V 101.2083 c 0,-7.328941 -5.90015,-13.229151 -13.22914,-13.229151 z m 70.11456,52.916671 h 124.35418 c 2.19866,0 3.96875,1.77009 3.96875,3.96874 v 18.521 c 0,2.19855 -1.77009,3.96875 -3.96875,3.96875 H 191.82291 c -2.19864,0 -3.96876,-1.7702 -3.96876,-3.96875 v -18.521 c 0,-2.19865 1.77012,-3.96874 3.96876,-3.96874 z"
       inkscape:connector-curvature="0" />
  </g>
</svg>
